<svg width="20" height="20" viewBox="0 0 20 20" fill="none" xmlns="http://www.w3.org/2000/svg">
<g opacity="0.15">
<path d="M9.99967 2.5C10.9202 2.5 11.6663 3.24619 11.6663 4.16667C11.6663 5.08714 10.9202 5.83333 9.99967 5.83333C9.07917 5.83333 8.33301 5.08714 8.33301 4.16667C8.33301 3.24619 9.07917 2.5 9.99967 2.5Z" fill="#717171"/>
<path d="M14.9997 8.3335C15.9202 8.3335 16.6663 9.07966 16.6663 10.0002C16.6663 10.9207 15.9202 11.6668 14.9997 11.6668C14.0792 11.6668 13.333 10.9207 13.333 10.0002C13.333 9.07966 14.0792 8.3335 14.9997 8.3335Z" fill="#717171"/>
<path d="M4.99967 14.1665C5.92015 14.1665 6.66634 14.9127 6.66634 15.8332C6.66634 16.7537 5.92015 17.4998 4.99967 17.4998C4.0792 17.4998 3.33301 16.7537 3.33301 15.8332C3.33301 14.9127 4.0792 14.1665 4.99967 14.1665Z" fill="#717171"/>
</g>
<path d="M3.33301 4.16667H8.33301M8.33301 4.16667C8.33301 5.08714 9.07917 5.83333 9.99967 5.83333C10.9202 5.83333 11.6663 5.08714 11.6663 4.16667M8.33301 4.16667C8.33301 3.24619 9.07917 2.5 9.99967 2.5C10.9202 2.5 11.6663 3.24619 11.6663 4.16667M11.6663 4.16667H16.6663M3.33301 10H13.333M13.333 10C13.333 10.9205 14.0792 11.6667 14.9997 11.6667C15.9202 11.6667 16.6663 10.9205 16.6663 10C16.6663 9.0795 15.9202 8.33333 14.9997 8.33333C14.0792 8.33333 13.333 9.0795 13.333 10ZM6.66634 15.8333H16.6663M6.66634 15.8333C6.66634 14.9128 5.92015 14.1667 4.99967 14.1667C4.0792 14.1667 3.33301 14.9128 3.33301 15.8333C3.33301 16.7538 4.0792 17.5 4.99967 17.5C5.92015 17.5 6.66634 16.7538 6.66634 15.8333Z" stroke="#121212" stroke-width="1.5" stroke-linecap="round"/>
</svg>
