<svg width="177" height="60" viewBox="0 0 177 60" fill="none" xmlns="http://www.w3.org/2000/svg">
<path d="M85.0097 23.0161H87.1897V30.1607L93.3609 23.0161H95.929L87.1897 32.8783V36.3178H85.0097V23.0161ZM90.6818 28.394L96.2621 36.3178H93.6379L89.2408 30.1798L90.6818 28.394Z" fill="#4FC4CA"/>
<path d="M102.303 23.0161H104.539L110.193 36.3178H107.865L103.357 25.2773L98.8669 36.3178H96.5937L102.303 23.0161ZM99.4387 31.339H107.18V33.2393H99.4387V31.339Z" fill="#4FC4CA"/>
<path d="M124.769 26.0941C124.3 25.7904 123.838 25.5501 123.382 25.3722C122.927 25.1955 122.495 25.0684 122.089 24.9921C121.684 24.9159 121.313 24.8777 120.98 24.8777C120.34 24.8777 119.829 25.0048 119.446 25.2578C119.064 25.5107 118.873 25.8781 118.873 26.3598C118.873 26.7907 118.999 27.1428 119.252 27.4148C119.505 27.6868 119.837 27.9092 120.25 28.0795C120.662 28.2511 121.118 28.4126 121.617 28.5638C122.116 28.7163 122.611 28.8841 123.104 29.0672C123.597 29.2515 124.052 29.4879 124.471 29.7802C124.89 30.0713 125.223 30.4424 125.469 30.8924C125.716 31.3424 125.838 31.9092 125.838 32.5931C125.838 33.3786 125.629 34.0599 125.21 34.6357C124.791 35.2127 124.216 35.6589 123.482 35.9754C122.749 36.2919 121.908 36.4507 120.96 36.4507C120.282 36.4507 119.623 36.3592 118.983 36.1749C118.342 35.9919 117.742 35.7415 117.182 35.425C116.622 35.1085 116.12 34.7412 115.676 34.323L116.618 32.48C117.061 32.8981 117.533 33.2528 118.031 33.5438C118.53 33.8349 119.034 34.0573 119.546 34.2086C120.056 34.3611 120.54 34.4361 120.996 34.4361C121.759 34.4361 122.354 34.2836 122.779 33.9798C123.204 33.676 123.416 33.2515 123.416 32.7062C123.416 32.2626 123.289 31.9054 123.036 31.6322C122.784 31.3601 122.452 31.1352 122.038 30.9572C121.626 30.7805 121.17 30.6217 120.671 30.4818C120.172 30.342 119.673 30.1806 119.174 29.9976C118.675 29.8145 118.22 29.5832 117.807 29.3036C117.395 29.0252 117.062 28.6642 116.809 28.2206C116.556 27.777 116.43 27.214 116.43 26.5288C116.43 25.7815 116.627 25.132 117.021 24.5816C117.415 24.0299 117.966 23.6029 118.675 23.2991C119.384 22.9953 120.206 22.8428 121.141 22.8428C121.978 22.8428 122.791 22.9699 123.58 23.2228C124.369 23.477 125.065 23.8062 125.668 24.2104L124.763 26.0916L124.769 26.0941Z" fill="#4FC4CA"/>
<path d="M126.858 23.0161H137.224V24.9354H133.121V36.3178H130.941V24.9354H126.858V23.0161Z" fill="#4FC4CA"/>
<path d="M144.095 22.8828C145.057 22.8828 145.953 23.0544 146.784 23.3963C147.614 23.7382 148.342 24.22 148.964 24.8402C149.585 25.4605 150.073 26.1799 150.424 26.9972C150.775 27.8145 150.951 28.6979 150.951 29.6487C150.951 30.5994 150.776 31.4892 150.424 32.3179C150.073 33.1479 149.586 33.8737 148.964 34.494C148.342 35.1142 147.614 35.5998 146.784 35.948C145.953 36.2963 145.055 36.4705 144.095 36.4705C143.136 36.4705 142.238 36.2963 141.407 35.948C140.577 35.5998 139.849 35.1155 139.227 34.494C138.606 33.8737 138.118 33.1479 137.767 32.3179C137.416 31.4879 137.24 30.5982 137.24 29.6487C137.24 28.6992 137.416 27.812 137.767 26.9883C138.118 26.1647 138.605 25.4465 139.227 24.8314C139.849 24.2174 140.577 23.7382 141.407 23.3963C142.238 23.0544 143.134 22.8828 144.095 22.8828ZM144.113 24.7831C143.473 24.7831 142.873 24.9063 142.312 25.1542C141.752 25.4008 141.256 25.7465 140.825 26.1901C140.394 26.6337 140.058 27.1498 139.818 27.7383C139.578 28.3268 139.458 28.9636 139.458 29.6487C139.458 30.3338 139.581 30.9731 139.827 31.568C140.074 32.1641 140.412 32.6865 140.843 33.1352C141.275 33.5851 141.77 33.9372 142.33 34.1902C142.891 34.4431 143.485 34.5702 144.113 34.5702C144.741 34.5702 145.336 34.4431 145.896 34.1902C146.457 33.9372 146.947 33.5851 147.366 33.1352C147.784 32.6852 148.113 32.1628 148.353 31.568C148.593 30.9731 148.713 30.3325 148.713 29.6487C148.713 28.9648 148.593 28.328 148.353 27.7383C148.113 27.1498 147.784 26.6337 147.366 26.1901C146.947 25.7465 146.457 25.4021 145.896 25.1542C145.336 24.9076 144.741 24.7831 144.113 24.7831Z" fill="#4FC4CA"/>
<path d="M158.525 23.0164C160.188 23.0164 161.472 23.413 162.377 24.2036C163.282 24.9955 163.735 26.1076 163.735 27.5388C163.735 28.9701 163.282 30.1966 162.377 31.0254C161.472 31.8554 160.188 32.2697 158.525 32.2697H155.457V36.3168H153.277V23.0151H158.525V23.0164ZM158.525 30.3517C159.523 30.3517 160.295 30.1267 160.844 29.6768C161.391 29.2268 161.666 28.5341 161.666 27.596C161.666 26.658 161.391 26.0288 160.844 25.5916C160.295 25.1543 159.523 24.9357 158.525 24.9357H155.457V30.3517H158.525ZM158.599 31.3965H160.742L163.957 36.3181H161.481L158.599 31.3965Z" fill="#4FC4CA"/>
<path d="M166.636 23.0161H175.874V24.9354H168.816V28.6787H175.135V30.5789H168.816V34.3985H176.095V36.3178H166.635V23.0161H166.636Z" fill="#4FC4CA"/>
<path d="M44.8147 25.3038C40.4623 23.8357 36.1112 22.3613 31.7627 20.8779C31.1538 20.6708 30.5629 20.5246 30.0562 21.0483C29.5763 21.5453 29.7422 22.116 29.9375 22.6841C30.7288 24.986 31.5087 27.293 32.2974 29.5962C33.0173 31.6985 33.7487 33.797 34.4647 35.9019C34.6523 36.4535 34.9638 36.8348 35.5853 36.8679C36.2439 36.9022 36.6179 36.5387 36.8374 35.9629C36.9319 35.715 37.0315 35.471 37.1297 35.2244C37.6416 33.9343 38.1521 32.6454 38.7252 31.2028C39.5433 32.0518 40.2517 32.8056 40.9818 33.539C41.6799 34.2406 42.3015 34.2965 42.8542 33.7411C43.3839 33.2098 43.3277 32.5183 42.6615 31.8561C41.9288 31.1265 41.1707 30.4223 40.3359 29.6228C41.9505 28.9822 43.3941 28.3785 44.8619 27.8396C45.5256 27.5968 46.0208 27.2765 45.9991 26.5126C45.9787 25.7677 45.4273 25.511 44.8147 25.3038ZM38.1712 27.8879C37.565 28.1001 37.1987 28.4675 36.9804 29.0534C36.6128 30.0372 36.2108 31.0083 35.7334 32.2082C34.7366 29.3064 33.8112 26.6117 32.8297 23.7544C35.7155 24.7382 38.4201 25.661 41.3098 26.646C40.1458 27.1112 39.1719 27.537 38.1725 27.8866L38.1712 27.8879Z" fill="#4FC4CA"/>
<path d="M34.5509 0.715121L32.076 8.55249C31.9931 8.81433 31.7276 8.97574 31.4557 8.92744L26.7587 8.10634C26.3184 8.02881 26.1499 7.48861 26.469 7.17593L33.6408 0.159668C34.0493 -0.239445 34.7232 0.171107 34.5509 0.715121Z" fill="#4FC4CA"/>
<path d="M60.9394 10.1474C60.9394 9.82835 60.9419 9.50931 60.9126 9.19281C60.8564 8.59796 60.5628 8.20011 59.9285 8.12512C59.5315 8.07809 59.1308 7.97514 58.7389 8.00056C56.0547 8.17724 53.3501 8.22299 50.6953 8.61067C46.5038 9.22332 42.4092 10.2847 38.4959 11.965C38.1347 12.1201 37.6088 12.087 37.2208 11.9586C35.859 11.5074 34.5443 10.9164 33.176 10.488C29.7937 9.42923 26.3399 8.6488 22.8044 8.33485C20.7354 8.15054 18.6549 8.04251 16.5783 8.03615C15.1079 8.03107 14.8195 8.43399 14.8195 9.87537C14.8195 19.0766 14.8195 28.2778 14.8195 37.479C14.8195 37.6926 14.9331 37.8896 15.1181 37.9976L16.6676 38.8962C16.8999 39.031 17.1922 38.8645 17.1922 38.5963C17.1935 29.5514 17.1986 20.5065 17.1782 11.4617C17.1769 10.7117 17.3441 10.4829 18.1406 10.4944C24.5823 10.5846 30.7688 11.8557 36.6911 14.3724C37.5144 14.7219 38.2215 14.7245 39.0498 14.3724C45.073 11.8137 51.3692 10.5325 57.9195 10.516C58.0739 10.516 58.2284 10.5363 58.4377 10.5516V42.6243C56.2641 42.7628 54.167 42.881 52.0725 43.0348C48.2243 43.317 44.542 44.3415 40.9414 45.6977C40.1654 45.99 39.411 46.332 38.6452 46.6484C38.0747 46.8849 37.5871 46.8327 36.9911 46.6205C34.2903 45.6583 31.6049 44.6059 28.8339 43.8991C27.4044 43.5344 25.9582 43.2547 24.4994 43.0615C24.313 43.0361 24.2262 43.2865 24.3896 43.3805L29.8716 46.562C32.0503 47.1416 34.1716 47.9348 36.2151 48.9211C37.3867 49.4867 38.3389 49.4677 39.5042 48.9338C45.6894 46.1057 52.2052 44.9033 59.0019 45.2083C60.476 45.2744 60.9317 44.8537 60.933 43.3767C60.9368 37.7993 60.9343 32.2206 60.9343 26.6432H60.9381C60.9381 21.1446 60.9381 15.6473 60.9381 10.1487L60.9394 10.1474Z" fill="#4FC4CA"/>
<path d="M61.7859 19.6259V26.8493C61.7859 27.0107 61.8574 27.1633 61.9812 27.2675L68.834 33.033C69.0407 33.2072 69.0892 33.5033 68.9501 33.7346L53.9593 58.4784C53.6096 59.0542 54.4098 59.6287 54.8489 59.1165L77.8782 32.2208C78.0786 31.9869 78.0467 31.6348 77.8067 31.4404L62.6832 19.2013C62.3233 18.9103 61.7859 19.1657 61.7859 19.6259Z" fill="#4FC4CA"/>
<path d="M14.0029 24.1632V33.6326C14.0029 33.8004 13.9263 33.958 13.7948 34.0622L11.2804 36.0451C10.9779 36.284 11.0098 36.7505 11.3417 36.9463L36.662 51.8507C36.9173 52.0007 37.0066 52.3274 36.8637 52.5867L34.3135 57.2044C34.1629 57.4777 33.8132 57.5705 33.5452 57.4078L0.264168 37.2348C-0.0421577 37.0492 -0.0906591 36.626 0.164612 36.3756L13.0673 23.7717C13.4157 23.4324 14.0029 23.6777 14.0029 24.1632Z" fill="#4FC4CA"/>
</svg>
